<svg width="69" height="27" viewBox="0 0 69 27" xmlns="http://www.w3.org/2000/svg"><title>Яндекс Copy 2</title><g fill="none" fill-rule="evenodd"><path d="M3.685 22.9H.88l4.207-9.217c-.995-.497-1.764-1.22-2.397-2.214-.588-.995-.905-2.305-.905-3.977 0-1.174.18-2.213.498-3.117.362-.904.814-1.627 1.402-2.214s1.31-1.04 2.08-1.31C6.58.582 7.393.4 8.298.4h3.618v22.5H9.474v-8.63H7.53L3.684 22.9zM9.52 2.433H8.206c-.497 0-.95.09-1.402.27-.452.182-.86.453-1.22.86-.363.406-.634.903-.86 1.536-.226.63-.317 1.445-.317 2.393 0 .904.09 1.672.317 2.26.18.632.452 1.084.814 1.49.36.362.768.633 1.22.814.452.135.95.226 1.492.226h1.312v-9.85H9.52z" id="Shape" fill="#F00"/><path d="M23.628 7.135v15.852h-2.442v-7.135h-3.663v7.09H15.08V7.135h2.443v6.73h3.663v-6.73h2.442zm12.617 18.923H34.03v-3.116h-6.784v3.116H25.03v-5.103h.995c.362-.858.633-1.76.86-2.8.225-.994.36-2.078.497-3.16.135-1.085.18-2.17.226-3.298.045-1.13.045-2.213.045-3.252V7.09h7.37v13.82h1.267v5.148h-.045zM32.582 9.123h-2.758v.27c0 .86 0 1.762-.046 2.755-.045.994-.09 1.987-.226 3.026-.09 1.04-.27 2.032-.452 3.026-.18.994-.452 1.897-.77 2.755h4.207V9.123h.045zm14.336 12.78c-.498.407-1.086.723-1.72.95-.632.224-1.355.36-2.17.36-1.627 0-2.94-.632-3.89-1.897-.948-1.264-1.4-3.116-1.4-5.6 0-1.264.09-2.44.27-3.522.182-1.084.453-1.988.86-2.8.407-.768.905-1.4 1.493-1.852.588-.452 1.312-.677 2.17-.677.634 0 1.267.135 1.81.406.543.272.995.678 1.402 1.265.362.588.678 1.355.86 2.26.225.947.316 2.076.316 3.43v1.356h-6.603c0 1.807.226 3.162.724 4.065.496.903 1.22 1.4 2.215 1.4.678 0 1.31-.135 1.854-.36.542-.227.95-.498 1.265-.724l.543 1.943zM42.53 8.943c-.768 0-1.31.405-1.582 1.263-.316.86-.497 1.988-.587 3.433h4.07c0-.68-.045-1.31-.09-1.853-.045-.587-.18-1.084-.316-1.49-.136-.407-.317-.723-.588-.994-.272-.27-.588-.36-.905-.36zm9.317 6.14v7.904h-2.442V7.135h2.442v7.317l3.8-7.317h2.486L54.2 14.587l4.52 8.4h-2.667l-4.206-7.903zm12.617 8.085c-1.718 0-3.03-.678-3.98-2.033-.95-1.354-1.446-3.387-1.446-6.096 0-1.22.135-2.35.36-3.343.227-.994.59-1.852 1.087-2.574.452-.723 1.04-1.265 1.763-1.626.724-.407 1.538-.587 2.442-.587.724 0 1.312.09 1.72.225.45.136.858.362 1.175.588l-.362 2.303c-.317-.316-.724-.587-1.176-.813-.452-.226-.95-.36-1.447-.36-.86 0-1.583.495-2.17 1.49-.59.992-.86 2.483-.86 4.515 0 1.987.226 3.523.724 4.607.452 1.083 1.22 1.625 2.216 1.625.587 0 1.13-.09 1.582-.316.453-.226.814-.45 1.086-.677l.588 1.806c-.407.362-.905.632-1.402.858-.543.317-1.176.408-1.9.408z" fill="#000"/></g></svg>